# xmcd CD database file
#
# Track frame offsets:
#	150
#	20756
#	43224
#	66095
#	84777
#	105199
#	125852
#	140050
#	164269
#	179239
#	200807
#	224152
#	239249
#
# Disc length: 3402 seconds
#
# Revision: 0
# Processed by: cddbd v1.4PL0 Copyright (c) Steve Scherf et al.
# Submitted via: NeoAudio 1.5.7
#
DISCID=d40d480d
DTITLE=Andy Montañez - Sus Exitos
DYEAR=1900
DGENRE=Salsa
TTITLE0=El Barbero Loco
TTITLE1=Un Verano en Nueva York
TTITLE2=Boricua Hasta la Muerte
TTITLE3=Don Goyo
TTITLE4=Te Voy a Enseñar
TTITLE5=El Eco del Tambor
TTITLE6=Rumbas, Mambo y Cha, Cha, Cha
TTITLE7=Casi Te Envidio
TTITLE8=Compasión
TTITLE9=Payaso
TTITLE10=Volvería
TTITLE11=Milonga Para Una Niña
TTITLE12=Ave María Lola
EXTD=
EXTT0=
EXTT1=
EXTT2=
EXTT3=
EXTT4=
EXTT5=
EXTT6=
EXTT7=
EXTT8=
EXTT9=
EXTT10=
EXTT11=
EXTT12=
PLAYORDER=
